<?xml version="1.0" encoding="utf-8"?>
<!-- Generator: Adobe Illustrator 19.2.1, SVG Export Plug-In . SVG Version: 6.00 Build 0)  -->
<svg version="1.1"
	 id="Layer_1" xmlns:cc="http://creativecommons.org/ns#" xmlns:dc="http://purl.org/dc/elements/1.1/" xmlns:rdf="http://www.w3.org/1999/02/22-rdf-syntax-ns#" xmlns:svg="http://www.w3.org/2000/svg"
	 xmlns="http://www.w3.org/2000/svg" xmlns:xlink="http://www.w3.org/1999/xlink" x="0px" y="0px" viewBox="0 0 210.8 33.5"
	 style="enable-background:new 0 0 210.8 33.5;" xml:space="preserve">
<g id="g18" transform="matrix(1.1294405,0,0,1.1294405,3.2818136e-4,-7.3515005e-5)">
	<path id="path2" d="M119.1,5.8h-4v18.4h4V5.8z M72.1,20.4c-0.8,0-1,0-1-1v-8.7c0-1,0.2-1,1-1h4c0.8,0,1,0,1,1v8.7c0,1-0.2,1-1,1
		L72.1,20.4z M81.1,9.4c0-3-1.2-3.5-3.7-3.5h-6.8c-2.5,0-3.7,0.6-3.7,3.5v11.3c0,3,1.2,3.5,3.7,3.5h6.8c2.5,0,3.7-0.6,3.7-3.5V9.4z"
		/>
	<path id="path4" d="M148.9,10.5c0.1-1,0.5-1,1.4-1h2.5c0.8,0,1.3,0,1.4,1l0.4,3h-6.1L148.9,10.5z M155.9,24.2h4l-2-14.8
		c-0.3-3.3-1.2-3.6-3.7-3.6h-5.3c-2.5,0-3.4,0.2-3.7,3.6l-2,14.8h4l0.9-6.8h6.9L155.9,24.2z"/>
	<path id="path6" d="M55.5,20.4c-0.8,0-1,0-1-1l1.3-8.5c0.1-1,0.7-1.2,1.5-1.2h5.7V5.8h-7.4c-2.5,0-3.3,0.6-3.7,3.5l-1.6,11.3
		c0,3,1.2,3.5,3.7,3.5h8.9v-3.8H55.5z"/>
	<path id="path8" d="M85.5,9.4v14.8h4V10.7c0-1,0.2-1,1-1h5V5.8h-6.4C86.7,5.8,85.5,6.4,85.5,9.4"/>
	<path id="path10" d="M138.1,9.4c-0.3-3.3-1.2-3.5-3.7-3.5h-6.7c-2.5,0-3.7,0.6-3.7,3.5v14.8h4V10.7c0-1,0.2-1,1-1h3.9
		c0.8,0,0.9,0,1,1l1.4,13.5h4L138.1,9.4z"/>
	<polygon id="polygon12" points="111.1,5.8 98.5,5.8 98.5,9.7 102.8,9.7 102.8,24.2 106.8,24.2 106.8,9.7 111.1,9.7 	"/>
	<path id="path14" d="M20.5,9c-1.1,0.4-1.5,0.3-2.6-0.2c-2.5-1.1-4.2-0.9-4.2-0.9C9.3,8.3,6.4,12.9,8,17.3c1.6,4.3,6.7,6.1,10.4,3.5
		c0,0,1.5-0.9,2.7-3.3c0.6-1.4,1-1.6,1.8-1.9c0.7-0.2,3.7-1.3,4-1.4c0.7-0.3,1.4-0.5,1.4,1.3c0,6.4-4.4,11.9-10.6,13.3
		C10.9,30.3,4,26.4,1.5,19.7c-1.2-3.4-1.1-7,0.1-10.1C2.8,6.5,5,3.9,8.1,2.3c5.7-2.9,12.6-1.5,16.7,3.4c1.4,1.5-0.3,1.9-0.3,1.9
		C24,7.7,20.5,9,20.5,9"/>
	<path id="path16" d="M15.7,18c1.7-0.6,2.6-2.5,1.9-4.2c-0.6-1.7-2.5-2.6-4.2-1.9c-1.7,0.6-2.6,2.5-1.9,4.2
		C12.2,17.7,14,18.6,15.7,18"/>
</g>
</svg>
